<?xml version="1.0" encoding="UTF-8" standalone="no"?>
<svg
   xmlns:dc="http://purl.org/dc/elements/1.1/"
   xmlns:cc="http://creativecommons.org/ns#"
   xmlns:rdf="http://www.w3.org/1999/02/22-rdf-syntax-ns#"
   xmlns:svg="http://www.w3.org/2000/svg"
   xmlns="http://www.w3.org/2000/svg"
   xmlns:sodipodi="http://sodipodi.sourceforge.net/DTD/sodipodi-0.dtd"
   xmlns:inkscape="http://www.inkscape.org/namespaces/inkscape"
   width="404.36703pt"
   height="404.36703pt"
   viewBox="0 0 404.36703 404.36703"
   version="1.2"
   id="svg49"
   sodipodi:docname="logo-square.svg"
   inkscape:version="0.92.1 r15371"
   inkscape:export-filename="/data/ocifka/docs/mip-frontiers/logo-square.png"
   inkscape:export-xdpi="71.22242"
   inkscape:export-ydpi="71.22242">
  <metadata
     id="metadata55">
    <rdf:RDF>
      <cc:Work
         rdf:about="">
        <dc:format>image/svg+xml</dc:format>
        <dc:type
           rdf:resource="http://purl.org/dc/dcmitype/StillImage" />
        <dc:title></dc:title>
      </cc:Work>
    </rdf:RDF>
  </metadata>
  <defs
     id="defs53" />
  <sodipodi:namedview
     pagecolor="#ffffff"
     bordercolor="#666666"
     borderopacity="1"
     objecttolerance="10"
     gridtolerance="10"
     guidetolerance="10"
     inkscape:pageopacity="0"
     inkscape:pageshadow="2"
     inkscape:window-width="1577"
     inkscape:window-height="861"
     id="namedview51"
     showgrid="false"
     fit-margin-top="0"
     fit-margin-left="0"
     fit-margin-right="0"
     fit-margin-bottom="0"
     inkscape:zoom="0.65446559"
     inkscape:cx="288.23164"
     inkscape:cy="174.62199"
     inkscape:window-x="274"
     inkscape:window-y="131"
     inkscape:window-maximized="0"
     inkscape:current-layer="g4668"
     showguides="true"
     inkscape:guide-bbox="true" />
  <g
     id="g4668"
     transform="translate(-610.65,-150.84345)">
    <g
       id="g4554"
       transform="matrix(0.7508568,0,0,0.7508568,698.1121,20.892978)"
       style="stroke-width:1.3318119">
      <path
         id="path2"
         d="m 156.82812,490.77344 c -3.66406,-4.14063 -8.61718,-7.91797 -5.45312,-14.46094 2.83203,-5.86719 7.96094,-7.12891 14.19141,-7.11719 72.38671,0.14063 144.77734,0.0937 217.16796,0.0781 5.79688,0 11.81641,-0.15625 14.62891,6.16797 2.94141,6.625 -0.56641,11.38671 -5.625,15.33203 z m 0,0"
         style="fill:#0c458a;fill-opacity:1;fill-rule:nonzero;stroke:none;stroke-width:1.3318119"
         inkscape:connector-curvature="0" />
      <path
         id="path4"
         d="m 197.51172,288.33203 c 4.60156,0.0117 9.21094,-0.17969 13.79687,0.0586 6.73828,0.34766 10.91016,4.82032 10.9336,10.78907 0.0195,5.41797 -3.91016,10.09765 -10.1836,10.3125 -9.89453,0.33203 -19.82031,0.41797 -29.71093,-0.0274 -6.59375,-0.30078 -10.82813,-4.74609 -10.21875,-11.15625 0.57031,-6.04687 4.74609,-10.07422 11.57421,-9.99609 4.60157,0.0508 9.20704,0.0117 13.8086,0.0195"
         style="fill:#1c73e6;fill-opacity:1;fill-rule:nonzero;stroke:none;stroke-width:1.3318119"
         inkscape:connector-curvature="0" />
      <path
         id="path6"
         d="m 196.71484,355.71484 c -4.60547,-0.004 -9.26172,0.44922 -13.79687,-0.11718 -6.23438,-0.77344 -11.05078,-4.53125 -10.83985,-10.96875 0.19922,-6.24219 4.47657,-10.26954 11.23047,-10.35157 9.20703,-0.10937 18.42188,-0.14062 27.62891,0.008 6.66016,0.11328 11.19141,4.09765 11.43359,10.28125 0.2461,6.30859 -4.52343,10.29296 -10.78515,11.03515 -4.89453,0.58203 -9.90625,0.11719 -14.8711,0.11328"
         style="fill:#1e5cab;fill-opacity:1;fill-rule:nonzero;stroke:none;stroke-width:1.3318119"
         inkscape:connector-curvature="0" />
      <path
         id="path8"
         d="m 196.90234,401.01562 c -4.62109,0 -9.24609,-0.0859 -13.86718,0.0195 -6.55469,0.15234 -10.02735,-3.89454 -10.94922,-9.44532 -1.04297,-6.27343 3.28125,-10.60937 8.875,-11.33203 10.89843,-1.40625 22.01562,-1.5664 32.91797,0.11328 5.33593,0.82422 9.33203,5.16016 8.54687,10.58985 -0.76172,5.24218 -4.08594,9.90625 -10.58984,10.03515 -4.97657,0.10157 -9.95313,0.0195 -14.9336,0.0195"
         style="fill:#0c428a;fill-opacity:1;fill-rule:nonzero;stroke:none;stroke-width:1.3318119"
         inkscape:connector-curvature="0" />
      <path
         id="path10"
         d="m 273.65234,401.02344 c -4.61718,0 -9.22656,0.0234 -13.83984,-0.004 -6.25391,-0.0352 -10.24609,-3.20312 -10.83203,-9.33594 -0.58985,-6.22265 3.27734,-10.60547 8.95703,-11.38672 10.875,-1.48437 21.94922,-1.46875 32.84766,0.0195 5.60156,0.76953 8.71484,5.62109 8.39453,10.73046 -0.3125,5.08985 -3.875,9.30469 -9.57813,9.78907 -5.28515,0.45312 -10.63281,0.0976 -15.94922,0.0976 z m 0,0"
         style="fill:#1e5cab;fill-opacity:1;fill-rule:nonzero;stroke:none;stroke-width:1.3318119"
         inkscape:connector-curvature="0" />
      <path
         id="path12"
         d="m 196.80859,446.33984 c -4.60547,-0.008 -9.23047,0.19141 -13.82031,-0.0586 -6.64062,-0.36719 -10.85937,-4.34766 -10.94922,-10.6875 -0.0937,-5.98828 4.48828,-10.03125 10.15625,-10.42969 9.875,-0.70312 19.875,-0.76562 29.7461,-0.0508 6.13671,0.43359 10.97265,4.86328 10.42578,11.24219 -0.51953,6.05859 -4.96485,9.99609 -11.73438,9.99609 -4.60937,0 -9.21484,0 -13.82422,-0.0117"
         style="fill:#0c428a;fill-opacity:1;fill-rule:nonzero;stroke:none;stroke-width:1.3318119"
         inkscape:connector-curvature="0" />
      <path
         id="path14"
         d="m 273.73828,446.33984 c -4.26953,0.0117 -8.54297,-0.0351 -12.80859,0.0195 -6.57032,0.0859 -11.12891,-2.84375 -12,-9.4375 -0.94141,-7.07421 4.28906,-11.05468 9.92578,-11.61718 10.21484,-1.01953 20.64062,-0.80078 30.90625,-0.0899 5.95312,0.41016 9.86328,5.54688 9.5039,11.04688 -0.35546,5.33594 -4.07031,9.90625 -10.58203,10.04297 -4.98047,0.10547 -9.96093,0.0273 -14.94531,0.0351"
         style="fill:#0c428a;fill-opacity:1;fill-rule:nonzero;stroke:none;stroke-width:1.3318119"
         inkscape:connector-curvature="0" />
      <path
         id="path16"
         d="m 350.875,446.32422 c -4.60547,-0.0117 -9.22266,0.20703 -13.80469,-0.0625 -6.63281,-0.39063 -10.92187,-4.47266 -10.9375,-10.72266 -0.0117,-5.77734 4.50781,-10.01953 10.24219,-10.40234 9.87109,-0.66016 19.85547,-0.73047 29.71094,0.0195 6.07422,0.46094 10.97656,4.69141 10.35937,11.24219 -0.58203,6.1875 -5.05469,9.91406 -11.76172,9.92578 -4.60156,0.0156 -9.20703,0.008 -13.80859,0"
         style="fill:#1e5cab;fill-opacity:1;fill-rule:nonzero;stroke:none;stroke-width:1.3318119"
         inkscape:connector-curvature="0" />
      <path
         id="path18"
         d="m 273.32422,355.73437 c -4.26563,0 -8.57031,0.35157 -12.79297,-0.0781 -6.80469,-0.69531 -11.8125,-4.55078 -11.41406,-11.55469 0.35937,-6.3789 5.13672,-9.82422 11.80468,-9.83203 8.89454,-0.008 17.78516,0.043 26.67579,-0.008 6.98046,-0.0391 11.19921,4.19531 11.38671,10.25781 0.19141,6.08984 -4.01562,10.62891 -10.72265,11.10938 -4.95703,0.35156 -9.95703,0.0703 -14.9375,0.0703 z m 0,0"
         style="fill:#1973e6;fill-opacity:1;fill-rule:nonzero;stroke:none;stroke-width:1.3318119"
         inkscape:connector-curvature="0" />
      <path
         id="path20"
         d="m 350.69531,401.03125 c -4.60156,-0.008 -9.20703,0.0898 -13.80469,-0.0273 -6.38671,-0.16797 -10.22265,-4.54297 -10.69531,-9.86719 -0.48828,-5.56641 3.33985,-10.58203 9.38672,-10.92578 10.55469,-0.60157 21.21094,-0.69141 31.74219,0.10937 5.74219,0.4375 9.90234,5.05469 9.11328,11.06641 -0.72656,5.53906 -4.53906,9.54297 -10.88281,9.64062 -4.95313,0.0742 -9.90625,0.0156 -14.85938,0.004"
         style="fill:#1973e6;fill-opacity:1;fill-rule:nonzero;stroke:none;stroke-width:1.3318119"
         inkscape:connector-curvature="0" />
      <path
         id="path22"
         d="m 196.89062,262.73437 c -5.32031,-0.008 -10.63671,0.15625 -15.94531,-0.0508 -5.42969,-0.21875 -8.58984,-3.55468 -8.95312,-8.71093 -0.39844,-5.66016 2.78515,-10.19922 8.3125,-10.52344 11.29297,-0.66797 22.67187,-0.59375 33.97265,0.008 5.2461,0.27734 8.11719,5.27734 7.96485,9.85547 -0.16407,5.05078 -3.10157,9.44922 -9.41016,9.4375 -5.31641,-0.0156 -10.62891,-0.004 -15.94141,-0.0156"
         style="fill:#68a6f5;fill-opacity:1;fill-rule:nonzero;stroke:none;stroke-width:1.3318119"
         inkscape:connector-curvature="0" />
    </g>
    <g
       id="g4570"
       transform="matrix(1.0844602,0,0,1.0844602,486.38427,-131.62731)"
       style="stroke-width:0.92211765">
      <path
         inkscape:connector-curvature="0"
         id="path24"
         d="m 137.76618,561.58578 h -7.1539 v -61.52834 h 34.29922 v 6.35392 h -27.14532 v 22.51569 h 25.50483 v 6.35392 h -25.50483 z m 0,0"
         style="fill:#000000;fill-opacity:1;fill-rule:nonzero;stroke:none;stroke-width:0.92211759" />
      <path
         inkscape:connector-curvature="0"
         id="path26"
         d="m 194.0514,514.61927 c 2.0486,0 3.88639,0.16755 5.51337,0.50539 l -0.96753,6.48094 c -1.90806,-0.42162 -3.5918,-0.63243 -5.04854,-0.63243 -3.73235,0 -6.92416,1.51618 -9.57545,4.54586 -2.65129,3.02965 -3.97831,6.80254 -3.97831,11.32135 v 24.7454 h -6.9836 v -46.12599 h 5.76473 l 0.79997,8.54305 h 0.33513 c 1.71078,-3.00262 3.77287,-5.3161 6.18635,-6.94309 2.41345,-1.62699 5.06475,-2.44048 7.95388,-2.44048"
         style="fill:#000000;fill-opacity:1;fill-rule:nonzero;stroke:none;stroke-width:0.92211759" />
      <path
         inkscape:connector-curvature="0"
         id="path28"
         d="m 211.83206,538.4809 c 0,5.89175 1.17565,10.38084 3.53235,13.46726 2.35942,3.08642 5.82151,4.62963 10.39708,4.62963 4.57287,0 8.04576,-1.53512 10.41597,-4.60801 2.37022,-3.0729 3.55397,-7.56741 3.55397,-13.48888 0,-5.86475 -1.18375,-10.316 -3.55397,-13.36187 -2.37021,-3.04587 -5.87283,-4.56748 -10.49975,-4.56748 -4.57557,0 -8.02687,1.50268 -10.35382,4.50532 -2.32969,3.00263 -3.49183,7.4755 -3.49183,13.42403 m 35.13975,0 c 0,7.51874 -1.89455,13.39158 -5.68095,17.6131 -3.78911,4.22424 -9.02141,6.3323 -15.69694,6.3323 -4.12422,0 -7.78631,-0.96755 -10.98624,-2.90263 -3.19721,-1.93509 -5.66744,-4.71341 -7.40523,-8.33225 -1.74051,-3.61883 -2.61075,-7.85659 -2.61075,-12.71052 0,-7.51877 1.88105,-13.37538 5.6404,-17.56989 3.75939,-4.19449 8.97548,-6.29174 15.6537,-6.29174 6.45392,0 11.58083,2.1459 15.38345,6.43769 3.80261,4.2918 5.70256,10.10249 5.70256,17.42394"
         style="fill:#000000;fill-opacity:1;fill-rule:nonzero;stroke:none;stroke-width:0.92211759" />
      <path
         inkscape:connector-curvature="0"
         id="path30"
         d="m 289.74923,561.58578 v -29.83987 c 0,-3.75938 -0.85672,-6.56472 -2.56753,-8.41602 -1.71076,-1.85131 -4.39177,-2.77834 -8.03764,-2.77834 -4.82693,0 -8.36197,1.30539 -10.60517,3.91616 -2.24589,2.60803 -3.36749,6.91604 -3.36749,12.9186 v 24.19947 h -6.98632 v -46.12599 h 5.68096 l 1.1351,6.31336 h 0.33782 c 1.42971,-2.27292 3.43777,-4.03233 6.01879,-5.28095 2.58101,-1.24862 5.45663,-1.87293 8.62684,-1.87293 5.55664,0 9.73761,1.3405 12.54295,4.01883 2.80265,2.67831 4.20802,6.96471 4.20802,12.85646 v 30.09122 z m 0,0"
         style="fill:#000000;fill-opacity:1;fill-rule:nonzero;stroke:none;stroke-width:0.92211759" />
      <path
         inkscape:connector-curvature="0"
         id="path32"
         d="m 324.95112,556.66157 c 1.23242,0 2.42698,-0.0919 3.5756,-0.27297 1.15134,-0.18108 2.06213,-0.37297 2.73508,-0.56758 v 5.34315 c -0.75673,0.36484 -1.87293,0.66755 -3.34588,0.90538 -1.47293,0.23782 -2.79723,0.35945 -3.97557,0.35945 -8.92143,0 -13.38348,-4.6999 -13.38348,-14.09968 v -27.43991 h -6.60795 v -3.36749 l 6.60795,-2.90265 2.94587,-9.84842 h 4.04044 v 10.68894 h 13.38349 v 5.42962 h -13.38349 v 27.14533 c 0,2.7783 0.65945,4.9107 1.97836,6.39714 1.31888,1.48645 3.12695,2.22969 5.42958,2.22969"
         style="fill:#000000;fill-opacity:1;fill-rule:nonzero;stroke:none;stroke-width:0.92211759" />
      <path
         inkscape:connector-curvature="0"
         id="path34"
         d="m 346.43173,561.58578 h -6.98634 v -46.12599 h 6.98634 z m -7.57551,-58.62571 c 0,-1.59996 0.3919,-2.77021 1.17836,-3.51343 0.78647,-0.74322 1.76752,-1.11619 2.94587,-1.11619 1.1216,0 2.08914,0.37836 2.90535,1.13781 0.81349,0.75675 1.2189,1.92159 1.2189,3.49181 0,1.57295 -0.40541,2.74319 -1.2189,3.51613 -0.81621,0.77028 -1.78375,1.15675 -2.90535,1.15675 -1.17835,0 -2.1594,-0.38647 -2.94587,-1.15675 -0.78646,-0.77294 -1.17836,-1.94318 -1.17836,-3.51613"
         style="fill:#000000;fill-opacity:1;fill-rule:nonzero;stroke:none;stroke-width:0.92211759" />
      <path
         inkscape:connector-curvature="0"
         id="path36"
         d="m 377.804,520.46779 c -3.70534,0 -6.65662,1.20807 -8.86197,3.61883 -2.19994,2.41347 -3.49722,5.75392 -3.89181,10.0187 h 24.11567 c 0,-4.40531 -0.98105,-7.78092 -2.94588,-10.12411 -1.96481,-2.34048 -4.77015,-3.51342 -8.41601,-3.51342 m 1.89185,41.96121 c -6.81606,0 -12.19703,-2.07833 -16.14019,-6.2296 -3.94045,-4.15125 -5.91336,-9.9187 -5.91336,-17.29691 0,-7.43494 1.83238,-13.34293 5.49445,-17.71851 3.66209,-4.37556 8.57818,-6.56471 14.75102,-6.56471 5.77826,0 10.35112,1.89996 13.7186,5.70255 3.3675,3.79995 5.05125,8.81605 5.05125,15.04562 v 4.41884 h -31.77495 c 0.14045,5.41338 1.50808,9.5241 4.10261,12.32943 2.59453,2.80805 6.2485,4.20802 10.9646,4.20802 4.96475,0 9.87545,-1.03782 14.72941,-3.11343 v 6.22957 c -2.47022,1.06485 -4.8053,1.82969 -7.00796,2.29455 -2.20263,0.46215 -4.86204,0.69458 -7.97548,0.69458"
         style="fill:#000000;fill-opacity:1;fill-rule:nonzero;stroke:none;stroke-width:0.92211759" />
      <path
         inkscape:connector-curvature="0"
         id="path38"
         d="m 428.57582,514.61927 c 2.04589,0 3.8864,0.16755 5.51338,0.50539 l -0.96754,6.48094 c -1.90806,-0.42162 -3.5918,-0.63243 -5.05124,-0.63243 -3.73234,0 -6.92147,1.51618 -9.57275,4.54586 -2.6513,3.02965 -3.97829,6.80254 -3.97829,11.32135 v 24.7454 h -6.98633 v -46.12599 h 5.76473 l 0.79998,8.54305 h 0.33783 c 1.71078,-3.00262 3.77289,-5.3161 6.18637,-6.94309 2.41074,-1.62699 5.06202,-2.44048 7.95386,-2.44048"
         style="fill:#000000;fill-opacity:1;fill-rule:nonzero;stroke:none;stroke-width:0.92211759" />
      <path
         inkscape:connector-curvature="0"
         id="path40"
         d="m 471.43701,549.00228 c 0,4.2918 -1.59997,7.60254 -4.79989,9.9322 -3.19723,2.32968 -7.68631,3.49182 -13.46457,3.49182 -6.11877,0 -10.88895,-0.96755 -14.31048,-2.90263 v -6.48095 c 2.21616,1.1216 4.59449,2.00537 7.13227,2.6513 2.54048,0.64593 4.98908,0.96755 7.34578,0.96755 3.64586,0 6.45391,-0.58107 8.41602,-1.74592 1.96483,-1.16483 2.94589,-2.93775 2.94589,-5.32419 0,-1.79457 -0.77836,-3.33237 -2.33508,-4.60802 -1.55673,-1.27564 -4.59451,-2.78371 -9.11062,-4.52421 -4.29449,-1.59996 -7.34578,-2.99454 -9.15383,-4.1864 -1.81078,-1.19456 -3.1567,-2.5486 -4.04044,-4.06208 -0.88377,-1.51617 -1.32701,-3.32425 -1.32701,-5.42959 0,-3.75939 1.52969,-6.72688 4.58909,-8.89982 3.05668,-2.1756 7.25117,-3.26207 12.58349,-3.26207 4.96476,0 9.8187,1.00807 14.56183,3.02967 l -2.48374,5.68095 c -4.62962,-1.90808 -8.82412,-2.8621 -12.58349,-2.8621 -3.31074,0 -5.80797,0.52161 -7.4917,1.55672 -1.68377,1.0405 -2.52429,2.47022 -2.52429,4.29449 0,1.23511 0.31622,2.28643 0.94593,3.15397 0.63241,0.87027 1.64861,1.69998 3.05129,2.48375 1.40266,0.78647 4.09721,1.92428 8.08089,3.41072 5.47015,1.99186 9.16737,3.99722 11.08893,6.01609 1.92159,2.02158 2.88373,4.55935 2.88373,7.61875"
         style="fill:#000000;fill-opacity:1;fill-rule:nonzero;stroke:none;stroke-width:0.92211759" />
    </g>
    <g
       id="g4559"
       transform="matrix(1.0844602,0,0,1.0844602,660.82013,-221.23382)"
       style="stroke-width:0.92211765">
      <path
         inkscape:connector-curvature="0"
         id="path42"
         d="M -4.1873637,561.58578 -19.000545,513.3139 h -0.378369 c 0.532428,9.8214 0.799975,16.37261 0.799975,19.65361 v 28.61827 h -11.659188 v -61.52834 h 17.76176 L 2.0827645,547.10773 H 2.3368157 L 17.782415,500.05744 h 17.759051 v 61.52834 h -12.16188 v -29.12366 c 0,-1.37295 0.02166,-2.9594 0.06215,-4.75666 0.04315,-1.79455 0.232423,-6.56472 0.570251,-14.30778 h -0.381071 l -15.8645053,48.1881 z m 0,0"
         style="fill:#000000;fill-opacity:1;fill-rule:nonzero;stroke:none;stroke-width:0.92211759" />
      <path
         inkscape:connector-curvature="0"
         id="path44"
         d="m 48.703347,500.06015 h 13.04833 v 61.52832 h -13.04833 z m 0,0"
         style="fill:#000000;fill-opacity:1;fill-rule:nonzero;stroke:none;stroke-width:0.92211759" />
      <path
         inkscape:connector-curvature="0"
         id="path46"
         d="m 89.21592,529.01354 h 4.291804 c 4.010719,0 7.013356,-0.79187 9.005196,-2.37832 1.99185,-1.58375 2.98912,-3.89183 2.98912,-6.92148 0,-3.05668 -0.83511,-5.31609 -2.50535,-6.77552 -1.66752,-1.45943 -4.28367,-2.18913 -7.848474,-2.18913 H 89.21592 Z m 29.45879,-9.76194 c 0,6.62146 -2.07021,11.68352 -6.20795,15.19154 -4.13774,3.50805 -10.02411,5.25935 -17.65366,5.25935 h -5.59718 v 21.88598 H 76.167562 v -61.52832 h 19.653636 c 7.464662,0 13.137522,1.60536 17.023912,4.81881 3.88642,3.21343 5.8296,8.00249 5.8296,14.37264"
         style="fill:#000000;fill-opacity:1;fill-rule:nonzero;stroke:none;stroke-width:0.92211759" />
    </g>
  </g>
</svg>
